<mxfile host="app.diagrams.net" modified="2022-11-09T21:00:56.697Z" agent="5.0 (Windows)" etag="OUwAppJxtefdMULpSDJD" version="14.7.2" type="github">
  <diagram id="NfZyCrgVWeaiZl2KybzI" name="Page-1">
    <mxGraphModel dx="1038" dy="556" grid="1" gridSize="10" guides="1" tooltips="1" connect="1" arrows="1" fold="1" page="1" pageScale="1" pageWidth="850" pageHeight="1100" math="0" shadow="0">
      <root>
        <mxCell id="0" />
        <mxCell id="1" parent="0" />
        <mxCell id="Vv537qPU8R2wYAncmiS4-1" value="" style="endArrow=none;html=1;entryX=0.008;entryY=0.4;entryDx=0;entryDy=0;entryPerimeter=0;" edge="1" parent="1" target="Vv537qPU8R2wYAncmiS4-2">
          <mxGeometry width="50" height="50" relative="1" as="geometry">
            <mxPoint x="120" y="320" as="sourcePoint" />
            <mxPoint x="560" y="320" as="targetPoint" />
          </mxGeometry>
        </mxCell>
        <mxCell id="Vv537qPU8R2wYAncmiS4-2" value="" style="rounded=0;whiteSpace=wrap;html=1;" vertex="1" parent="1">
          <mxGeometry x="640" y="290" width="130" height="70" as="geometry" />
        </mxCell>
        <mxCell id="Vv537qPU8R2wYAncmiS4-3" value="&lt;font style=&quot;font-size: 13px&quot;&gt;&lt;b&gt;Веб продавница за винтиџ облека&lt;/b&gt;&lt;/font&gt;" style="text;html=1;strokeColor=none;fillColor=none;align=center;verticalAlign=middle;whiteSpace=wrap;rounded=0;rotation=0;" vertex="1" parent="1">
          <mxGeometry x="660" y="310" width="100" height="20" as="geometry" />
        </mxCell>
        <mxCell id="Vv537qPU8R2wYAncmiS4-10" value="" style="endArrow=classic;html=1;" edge="1" parent="1">
          <mxGeometry width="50" height="50" relative="1" as="geometry">
            <mxPoint x="200" y="470" as="sourcePoint" />
            <mxPoint x="240" y="320" as="targetPoint" />
          </mxGeometry>
        </mxCell>
        <mxCell id="Vv537qPU8R2wYAncmiS4-11" value="" style="endArrow=classic;html=1;" edge="1" parent="1">
          <mxGeometry width="50" height="50" relative="1" as="geometry">
            <mxPoint x="380" y="470" as="sourcePoint" />
            <mxPoint x="420" y="320" as="targetPoint" />
          </mxGeometry>
        </mxCell>
        <mxCell id="Vv537qPU8R2wYAncmiS4-12" value="" style="endArrow=classic;html=1;" edge="1" parent="1">
          <mxGeometry width="50" height="50" relative="1" as="geometry">
            <mxPoint x="560" y="470" as="sourcePoint" />
            <mxPoint x="600" y="320" as="targetPoint" />
          </mxGeometry>
        </mxCell>
        <mxCell id="Vv537qPU8R2wYAncmiS4-13" value="" style="endArrow=classic;html=1;" edge="1" parent="1">
          <mxGeometry width="50" height="50" relative="1" as="geometry">
            <mxPoint x="180" y="140" as="sourcePoint" />
            <mxPoint x="240" y="320" as="targetPoint" />
          </mxGeometry>
        </mxCell>
        <mxCell id="Vv537qPU8R2wYAncmiS4-14" value="" style="endArrow=classic;html=1;" edge="1" parent="1">
          <mxGeometry width="50" height="50" relative="1" as="geometry">
            <mxPoint x="360" y="130" as="sourcePoint" />
            <mxPoint x="420" y="320" as="targetPoint" />
          </mxGeometry>
        </mxCell>
        <mxCell id="Vv537qPU8R2wYAncmiS4-15" value="" style="endArrow=classic;html=1;" edge="1" parent="1">
          <mxGeometry width="50" height="50" relative="1" as="geometry">
            <mxPoint x="540" y="130" as="sourcePoint" />
            <mxPoint x="600" y="320" as="targetPoint" />
          </mxGeometry>
        </mxCell>
        <mxCell id="Vv537qPU8R2wYAncmiS4-20" value="" style="rounded=0;whiteSpace=wrap;html=1;" vertex="1" parent="1">
          <mxGeometry x="120" y="80" width="120" height="60" as="geometry" />
        </mxCell>
        <mxCell id="Vv537qPU8R2wYAncmiS4-21" value="&lt;b&gt;&lt;font style=&quot;font-size: 14px&quot;&gt;Квалитет&lt;/font&gt;&lt;/b&gt;" style="text;html=1;strokeColor=none;fillColor=none;align=center;verticalAlign=middle;whiteSpace=wrap;rounded=0;" vertex="1" parent="1">
          <mxGeometry x="150" y="100" width="40" height="20" as="geometry" />
        </mxCell>
        <mxCell id="Vv537qPU8R2wYAncmiS4-23" value="" style="endArrow=classic;html=1;" edge="1" parent="1">
          <mxGeometry width="50" height="50" relative="1" as="geometry">
            <mxPoint x="140" y="200" as="sourcePoint" />
            <mxPoint x="200" y="200" as="targetPoint" />
          </mxGeometry>
        </mxCell>
        <mxCell id="Vv537qPU8R2wYAncmiS4-25" value="Оштетено при транспорт" style="text;html=1;strokeColor=none;fillColor=none;align=center;verticalAlign=middle;whiteSpace=wrap;rounded=0;" vertex="1" parent="1">
          <mxGeometry x="60" y="190" width="80" height="20" as="geometry" />
        </mxCell>
        <mxCell id="Vv537qPU8R2wYAncmiS4-26" value="" style="endArrow=classic;html=1;" edge="1" parent="1">
          <mxGeometry width="50" height="50" relative="1" as="geometry">
            <mxPoint x="160" y="260" as="sourcePoint" />
            <mxPoint x="220" y="260" as="targetPoint" />
          </mxGeometry>
        </mxCell>
        <mxCell id="Vv537qPU8R2wYAncmiS4-27" value="Фабрички оштетено" style="text;html=1;strokeColor=none;fillColor=none;align=center;verticalAlign=middle;whiteSpace=wrap;rounded=0;" vertex="1" parent="1">
          <mxGeometry x="90" y="250" width="70" height="20" as="geometry" />
        </mxCell>
        <mxCell id="Vv537qPU8R2wYAncmiS4-28" value="&lt;font style=&quot;font-size: 11px&quot;&gt;&lt;b&gt;Незаинтересираност за производите&lt;/b&gt;&lt;/font&gt;" style="rounded=0;whiteSpace=wrap;html=1;" vertex="1" parent="1">
          <mxGeometry x="300" y="70" width="130" height="60" as="geometry" />
        </mxCell>
        <mxCell id="Vv537qPU8R2wYAncmiS4-29" value="Недоволно рекламирање" style="text;html=1;strokeColor=none;fillColor=none;align=center;verticalAlign=middle;whiteSpace=wrap;rounded=0;" vertex="1" parent="1">
          <mxGeometry x="280" y="190" width="40" height="20" as="geometry" />
        </mxCell>
        <mxCell id="Vv537qPU8R2wYAncmiS4-30" value="" style="endArrow=classic;html=1;" edge="1" parent="1">
          <mxGeometry width="50" height="50" relative="1" as="geometry">
            <mxPoint x="320" y="199.5" as="sourcePoint" />
            <mxPoint x="380" y="199.5" as="targetPoint" />
          </mxGeometry>
        </mxCell>
        <mxCell id="Vv537qPU8R2wYAncmiS4-31" value="" style="endArrow=classic;html=1;" edge="1" parent="1">
          <mxGeometry width="50" height="50" relative="1" as="geometry">
            <mxPoint x="340" y="259.5" as="sourcePoint" />
            <mxPoint x="400" y="259.5" as="targetPoint" />
          </mxGeometry>
        </mxCell>
        <mxCell id="Vv537qPU8R2wYAncmiS4-34" value="Производот да не е актуелен/ модерен" style="text;html=1;strokeColor=none;fillColor=none;align=center;verticalAlign=middle;whiteSpace=wrap;rounded=0;" vertex="1" parent="1">
          <mxGeometry x="250" y="250" width="90" height="20" as="geometry" />
        </mxCell>
        <mxCell id="Vv537qPU8R2wYAncmiS4-35" value="" style="rounded=0;whiteSpace=wrap;html=1;" vertex="1" parent="1">
          <mxGeometry x="480" y="70" width="120" height="60" as="geometry" />
        </mxCell>
        <mxCell id="Vv537qPU8R2wYAncmiS4-36" value="&lt;b&gt;Конкуренција&lt;/b&gt;" style="text;html=1;strokeColor=none;fillColor=none;align=center;verticalAlign=middle;whiteSpace=wrap;rounded=0;" vertex="1" parent="1">
          <mxGeometry x="520" y="90" width="40" height="20" as="geometry" />
        </mxCell>
        <mxCell id="Vv537qPU8R2wYAncmiS4-37" value="" style="endArrow=classic;html=1;" edge="1" parent="1">
          <mxGeometry width="50" height="50" relative="1" as="geometry">
            <mxPoint x="500" y="199.5" as="sourcePoint" />
            <mxPoint x="560" y="199.5" as="targetPoint" />
          </mxGeometry>
        </mxCell>
        <mxCell id="Vv537qPU8R2wYAncmiS4-38" value="" style="endArrow=classic;html=1;" edge="1" parent="1">
          <mxGeometry width="50" height="50" relative="1" as="geometry">
            <mxPoint x="520" y="269" as="sourcePoint" />
            <mxPoint x="580" y="269" as="targetPoint" />
          </mxGeometry>
        </mxCell>
        <mxCell id="Vv537qPU8R2wYAncmiS4-40" value="Големите брендови ја диктираат модата" style="text;html=1;strokeColor=none;fillColor=none;align=center;verticalAlign=middle;whiteSpace=wrap;rounded=0;" vertex="1" parent="1">
          <mxGeometry x="410" y="190" width="100" height="20" as="geometry" />
        </mxCell>
        <mxCell id="Vv537qPU8R2wYAncmiS4-41" value="Производите се среќаваат во продавниците за брза мода" style="text;html=1;strokeColor=none;fillColor=none;align=center;verticalAlign=middle;whiteSpace=wrap;rounded=0;" vertex="1" parent="1">
          <mxGeometry x="410" y="260" width="130" height="20" as="geometry" />
        </mxCell>
        <mxCell id="Vv537qPU8R2wYAncmiS4-42" value="" style="rounded=0;whiteSpace=wrap;html=1;" vertex="1" parent="1">
          <mxGeometry x="140" y="470" width="120" height="60" as="geometry" />
        </mxCell>
        <mxCell id="Vv537qPU8R2wYAncmiS4-43" value="&lt;font style=&quot;font-size: 13px&quot;&gt;&lt;b&gt;Испорака&lt;/b&gt;&lt;/font&gt;" style="text;html=1;strokeColor=none;fillColor=none;align=center;verticalAlign=middle;whiteSpace=wrap;rounded=0;" vertex="1" parent="1">
          <mxGeometry x="170" y="490" width="50" height="20" as="geometry" />
        </mxCell>
        <mxCell id="Vv537qPU8R2wYAncmiS4-44" value="" style="endArrow=classic;html=1;" edge="1" parent="1">
          <mxGeometry width="50" height="50" relative="1" as="geometry">
            <mxPoint x="170" y="370" as="sourcePoint" />
            <mxPoint x="230" y="370" as="targetPoint" />
          </mxGeometry>
        </mxCell>
        <mxCell id="Vv537qPU8R2wYAncmiS4-45" value="Доцни испораката" style="text;html=1;strokeColor=none;fillColor=none;align=center;verticalAlign=middle;whiteSpace=wrap;rounded=0;" vertex="1" parent="1">
          <mxGeometry x="120" y="360" width="40" height="20" as="geometry" />
        </mxCell>
        <mxCell id="Vv537qPU8R2wYAncmiS4-46" value="" style="endArrow=classic;html=1;" edge="1" parent="1">
          <mxGeometry width="50" height="50" relative="1" as="geometry">
            <mxPoint x="150" y="430" as="sourcePoint" />
            <mxPoint x="210" y="430" as="targetPoint" />
          </mxGeometry>
        </mxCell>
        <mxCell id="Vv537qPU8R2wYAncmiS4-48" value="&lt;div&gt;Погрешен производ&lt;/div&gt;&lt;div&gt;(модел, големина)&lt;/div&gt;" style="text;html=1;strokeColor=none;fillColor=none;align=center;verticalAlign=middle;whiteSpace=wrap;rounded=0;" vertex="1" parent="1">
          <mxGeometry x="80" y="420" width="90" height="20" as="geometry" />
        </mxCell>
        <mxCell id="Vv537qPU8R2wYAncmiS4-49" style="edgeStyle=orthogonalEdgeStyle;rounded=0;orthogonalLoop=1;jettySize=auto;html=1;exitX=0.5;exitY=1;exitDx=0;exitDy=0;" edge="1" parent="1" source="Vv537qPU8R2wYAncmiS4-48" target="Vv537qPU8R2wYAncmiS4-48">
          <mxGeometry relative="1" as="geometry" />
        </mxCell>
        <mxCell id="Vv537qPU8R2wYAncmiS4-50" value="&lt;font size=&quot;1&quot;&gt;&lt;b style=&quot;font-size: 13px&quot;&gt;Незадоволни купувачи&lt;/b&gt;&lt;/font&gt;" style="rounded=0;whiteSpace=wrap;html=1;" vertex="1" parent="1">
          <mxGeometry x="320" y="470" width="120" height="60" as="geometry" />
        </mxCell>
        <mxCell id="Vv537qPU8R2wYAncmiS4-51" value="Лош квалитет" style="text;html=1;strokeColor=none;fillColor=none;align=center;verticalAlign=middle;whiteSpace=wrap;rounded=0;" vertex="1" parent="1">
          <mxGeometry x="310" y="340" width="40" height="20" as="geometry" />
        </mxCell>
        <mxCell id="Vv537qPU8R2wYAncmiS4-52" value="" style="endArrow=classic;html=1;" edge="1" parent="1">
          <mxGeometry width="50" height="50" relative="1" as="geometry">
            <mxPoint x="350" y="350" as="sourcePoint" />
            <mxPoint x="410" y="350" as="targetPoint" />
          </mxGeometry>
        </mxCell>
        <mxCell id="Vv537qPU8R2wYAncmiS4-53" value="Несоодветна слика на производот" style="text;html=1;strokeColor=none;fillColor=none;align=center;verticalAlign=middle;whiteSpace=wrap;rounded=0;" vertex="1" parent="1">
          <mxGeometry x="275" y="390" width="65" height="20" as="geometry" />
        </mxCell>
        <mxCell id="Vv537qPU8R2wYAncmiS4-54" value="" style="endArrow=classic;html=1;" edge="1" parent="1">
          <mxGeometry width="50" height="50" relative="1" as="geometry">
            <mxPoint x="340" y="400" as="sourcePoint" />
            <mxPoint x="400" y="400" as="targetPoint" />
          </mxGeometry>
        </mxCell>
        <mxCell id="Vv537qPU8R2wYAncmiS4-56" value="" style="endArrow=classic;html=1;" edge="1" parent="1">
          <mxGeometry width="50" height="50" relative="1" as="geometry">
            <mxPoint x="330" y="449.5" as="sourcePoint" />
            <mxPoint x="390" y="449.5" as="targetPoint" />
          </mxGeometry>
        </mxCell>
        <mxCell id="Vv537qPU8R2wYAncmiS4-58" value="Лоша услуга" style="text;html=1;strokeColor=none;fillColor=none;align=center;verticalAlign=middle;whiteSpace=wrap;rounded=0;" vertex="1" parent="1">
          <mxGeometry x="250" y="440" width="80" height="20" as="geometry" />
        </mxCell>
        <mxCell id="Vv537qPU8R2wYAncmiS4-59" value="&lt;font style=&quot;font-size: 14px&quot;&gt;&lt;b&gt;Приватност&lt;/b&gt;&lt;/font&gt;" style="rounded=1;whiteSpace=wrap;html=1;" vertex="1" parent="1">
          <mxGeometry x="490" y="470" width="120" height="60" as="geometry" />
        </mxCell>
        <mxCell id="Vv537qPU8R2wYAncmiS4-60" value="Злопутреба на лични податоци" style="text;html=1;strokeColor=none;fillColor=none;align=center;verticalAlign=middle;whiteSpace=wrap;rounded=0;" vertex="1" parent="1">
          <mxGeometry x="460" y="350" width="80" height="20" as="geometry" />
        </mxCell>
        <mxCell id="Vv537qPU8R2wYAncmiS4-61" value="" style="endArrow=classic;html=1;" edge="1" parent="1">
          <mxGeometry width="50" height="50" relative="1" as="geometry">
            <mxPoint x="530" y="359" as="sourcePoint" />
            <mxPoint x="590" y="359" as="targetPoint" />
          </mxGeometry>
        </mxCell>
        <mxCell id="Vv537qPU8R2wYAncmiS4-62" value="" style="endArrow=classic;html=1;" edge="1" parent="1">
          <mxGeometry width="50" height="50" relative="1" as="geometry">
            <mxPoint x="510" y="420" as="sourcePoint" />
            <mxPoint x="570" y="420" as="targetPoint" />
          </mxGeometry>
        </mxCell>
        <mxCell id="Vv537qPU8R2wYAncmiS4-64" value="&lt;div&gt;Злоупотреба на кредитна&lt;/div&gt;&lt;div&gt;картичка&lt;br&gt;&lt;/div&gt;" style="text;html=1;strokeColor=none;fillColor=none;align=center;verticalAlign=middle;whiteSpace=wrap;rounded=0;" vertex="1" parent="1">
          <mxGeometry x="430" y="410" width="80" height="20" as="geometry" />
        </mxCell>
      </root>
    </mxGraphModel>
  </diagram>
</mxfile>
